<?xml version="1.0" standalone="no"?>
<!DOCTYPE svg PUBLIC "-//W3C//DTD SVG 20010904//EN"
 "http://www.w3.org/TR/2001/REC-SVG-20010904/DTD/svg10.dtd">
<svg version="1.0" xmlns="http://www.w3.org/2000/svg"
 width="700.000000pt" height="700.000000pt" viewBox="0 0 700.000000 700.000000"
 preserveAspectRatio="xMidYMid meet">
<metadata>
Created by potrace 1.11, written by Peter Selinger 2001-2013
</metadata>
<g transform="translate(0.000000,700.000000) scale(0.100000,-0.100000)"
fill="#000000" stroke="none">
<path d="M0 5295 l0 -1705 1120 0 1121 0 -3 -92 -3 -93 -1115 0 -1115 0 -3
-1703 -2 -1702 1705 0 1705 0 2 1102 3 1103 90 0 90 0 0 -1102 0 -1103 1702 0
1703 0 -2 1703 -3 1702 -1100 0 -1100 0 0 90 0 90 1103 3 1102 2 0 1705 0
1705 -1702 -2 -1703 -3 0 -1115 0 -1115 -93 -3 -92 -3 0 1121 0 1120 -1705 0
-1705 0 0 -1705z"/>
</g>
</svg>
